<!--?xml version="1.0" standalone="no"?-->
              <svg id="sw-js-blob-svg" viewBox="0 0 100 100" xmlns="http://www.w3.org/2000/svg" version="1.1">
                    <defs> 
                        <linearGradient id="sw-gradient" x1="0" x2="1" y1="1" y2="0">
                            <stop id="stop1" stop-color="rgba(36.226, 224.033, 149.784, 1)" offset="0%"></stop>
                            <stop id="stop2" stop-color="rgba(203.941, 255, 234.814, 1)" offset="100%"></stop>
                        </linearGradient>
                    </defs>
                <path fill="url(#sw-gradient)" d="M24,-24.4C31.8,-22.1,39.2,-15.2,38.2,-8.5C37.3,-1.9,28,4.5,23,13.5C18,22.5,17.3,34.1,12,38.4C6.7,42.7,-3.4,39.7,-10.3,34.5C-17.2,29.2,-20.9,21.8,-23.5,14.8C-26,7.8,-27.3,1.4,-25.6,-3.9C-24,-9.3,-19.5,-13.6,-14.7,-16.3C-10,-19.1,-5,-20.3,1.6,-22.2C8.1,-24.1,16.3,-26.6,24,-24.4Z" width="100%" height="100%" transform="translate(50 50)" stroke-width="0" style="transition: all 0.3s ease 0s;" stroke="url(#sw-gradient)"></path>
              </svg>