<!--?xml version="1.0" standalone="no"?-->
              <svg id="sw-js-blob-svg" viewBox="0 0 100 100" xmlns="http://www.w3.org/2000/svg" version="1.1">
                    <defs> 
                        <linearGradient id="sw-gradient" x1="0" x2="1" y1="1" y2="0">
                            <stop id="stop1" stop-color="rgba(151.365, 244.526, 207.695, 1)" offset="0%"></stop>
                            <stop id="stop2" stop-color="rgba(54.186, 214.925, 151.377, 1)" offset="100%"></stop>
                        </linearGradient>
                    </defs>
                <path fill="url(#sw-gradient)" d="M14.6,-17C16.1,-16.1,12.7,-8.9,15,-1.8C17.3,5.3,25.3,12.3,24.2,13.7C23.1,15.2,12.9,11.3,5.7,12.6C-1.5,13.9,-5.7,20.4,-12.1,22.7C-18.6,24.9,-27.3,22.9,-30,17.6C-32.7,12.3,-29.4,3.9,-23.5,0.3C-17.6,-3.3,-9.2,-2.1,-4.8,-2.5C-0.5,-2.9,-0.2,-5,3.1,-8.7C6.5,-12.5,13,-17.9,14.6,-17Z" width="100%" height="100%" transform="translate(50 50)" stroke-width="0" style="transition: all 0.3s ease 0s;"></path>
              </svg>