<!--?xml version="1.0" standalone="no"?-->
              <svg id="sw-js-blob-svg" viewBox="0 0 100 100" xmlns="http://www.w3.org/2000/svg" version="1.1">
                    <defs> 
                        <linearGradient id="sw-gradient" x1="0" x2="1" y1="1" y2="0">
                            <stop id="stop1" stop-color="rgba(167.927, 255, 220.576, 1)" offset="0%"></stop>
                            <stop id="stop2" stop-color="rgba(98.611, 230.864, 178.578, 1)" offset="100%"></stop>
                        </linearGradient>
                    </defs>
                <path fill="url(#sw-gradient)" d="M16.8,-31.1C22.2,-26,27.4,-22.4,29.1,-17.5C30.9,-12.5,29.2,-6.3,29.2,0C29.2,6.2,30.9,12.5,29,17.2C27.1,22,21.8,25.2,16.4,28.6C11,31.9,5.5,35.4,0.2,35C-5.1,34.6,-10.1,30.5,-16.4,27.6C-22.7,24.8,-30.2,23.3,-34.6,18.9C-38.9,14.5,-40.2,7.3,-38.6,0.9C-37.1,-5.5,-32.8,-10.9,-29.5,-17.2C-26.2,-23.4,-23.9,-30.4,-19.1,-35.9C-14.4,-41.4,-7.2,-45.5,-0.7,-44.2C5.7,-42.9,11.4,-36.3,16.8,-31.1Z" width="100%" height="100%" transform="translate(50 50)" stroke-width="0" style="transition: all 0.3s ease 0s;" stroke="url(#sw-gradient)"></path>
              </svg>