<!--?xml version="1.0" standalone="no"?-->
              <svg id="sw-js-blob-svg" viewBox="0 0 100 100" xmlns="http://www.w3.org/2000/svg" version="1.1">
                    <defs> 
                        <linearGradient id="sw-gradient" x1="0" x2="1" y1="1" y2="0">
                            <stop id="stop1" stop-color="rgba(167.927, 255, 220.576, 1)" offset="0%"></stop>
                            <stop id="stop2" stop-color="rgba(98.611, 230.864, 178.578, 1)" offset="100%"></stop>
                        </linearGradient>
                    </defs>
                <path fill="url(#sw-gradient)" d="M20.9,-35.6C27.2,-32.7,32.4,-27.2,35.4,-20.8C38.4,-14.5,39.2,-7.2,38.7,-0.3C38.1,6.6,36.2,13.2,32.9,19.1C29.7,25.1,25.1,30.3,19.4,33.2C13.7,36,6.9,36.4,0.7,35.2C-5.4,33.9,-10.8,31.1,-16.1,28C-21.4,24.9,-26.6,21.6,-29.1,16.9C-31.6,12.2,-31.4,6.1,-33.2,-1C-35.1,-8.2,-38.8,-16.4,-37.3,-22.7C-35.7,-29.1,-28.8,-33.5,-21.7,-36C-14.6,-38.5,-7.3,-39,0,-39C7.3,-39,14.7,-38.6,20.9,-35.6Z" width="100%" height="100%" transform="translate(50 50)" stroke-width="0" style="transition: all 0.3s ease 0s;" stroke="url(#sw-gradient)"></path>
              </svg>