<!--?xml version="1.0" standalone="no"?-->
              <svg id="sw-js-blob-svg" viewBox="0 0 100 100" xmlns="http://www.w3.org/2000/svg" version="1.1">
                    <defs> 
                        <linearGradient id="sw-gradient" x1="0" x2="1" y1="1" y2="0">
                            <stop id="stop1" stop-color="rgba(167.927, 255, 220.576, 1)" offset="0%"></stop>
                            <stop id="stop2" stop-color="rgba(98.611, 230.864, 178.578, 1)" offset="100%"></stop>
                        </linearGradient>
                    </defs>
                <path fill="url(#sw-gradient)" d="M21.1,-35.6C28.3,-32.5,35.7,-28.7,38.4,-22.6C41,-16.6,38.9,-8.3,37.2,-1C35.4,6.2,33.8,12.4,31.6,19.2C29.4,26,26.4,33.3,21,38.4C15.7,43.4,7.8,46.2,0.1,46C-7.6,45.8,-15.2,42.7,-21.8,38.3C-28.3,33.9,-33.7,28.3,-37.5,21.7C-41.3,15.1,-43.4,7.5,-41.9,0.9C-40.3,-5.7,-35.1,-11.5,-31.5,-18.5C-28,-25.6,-26.2,-34,-21.3,-38.4C-16.3,-42.8,-8.1,-43.3,-0.6,-42.3C7,-41.3,14,-38.8,21.1,-35.6Z" width="100%" height="100%" transform="translate(50 50)" stroke-width="0" style="transition: all 0.3s ease 0s;" stroke="url(#sw-gradient)"></path>
              </svg>