<!--?xml version="1.0" standalone="no"?-->
              <svg id="sw-js-blob-svg" viewBox="0 0 100 100" xmlns="http://www.w3.org/2000/svg" version="1.1">
                    <defs> 
                        <linearGradient id="sw-gradient" x1="0" x2="1" y1="1" y2="0">
                            <stop id="stop1" stop-color="rgba(151.365, 244.526, 207.695, 1)" offset="0%"></stop>
                            <stop id="stop2" stop-color="rgba(54.186, 214.925, 151.377, 1)" offset="100%"></stop>
                        </linearGradient>
                    </defs>
                <path fill="url(#sw-gradient)" d="M14.2,-27.7C16.5,-23.4,15.1,-15.6,17.3,-10.4C19.6,-5.2,25.7,-2.6,23.9,-1C22.1,0.6,12.5,1.1,8.1,2.8C3.8,4.4,4.8,7.1,4.3,8.5C3.8,9.9,1.9,10,0.2,9.6C-1.5,9.2,-2.9,8.4,-8.9,10.2C-14.9,12,-25.4,16.3,-26.6,15.1C-27.8,13.8,-19.8,6.9,-17.7,1.2C-15.5,-4.5,-19.4,-8.9,-20.1,-13.5C-20.8,-18.1,-18.3,-22.8,-14.5,-26.3C-10.6,-29.7,-5.3,-31.9,0.3,-32.5C6,-33.1,12,-32.1,14.2,-27.7Z" width="100%" height="100%" transform="translate(50 50)" stroke-width="0" style="transition: all 0.3s ease 0s;"></path>
              </svg>