<svg id="Headsvgg" width="500" height="500" viewBox="0 0 500 500" fill="none" xmlns="http://www.w3.org/2000/svg">
<rect  width="500" height="500" fill="white"/>
<g id="Frame">
<g id="Background_Simple">
<g id="Group">
<path id="Vector" d="M483.551 209.106C434.807 125.632 302.601 155.362 275.596 114.757C261.769 93.967 246.301 69.868 223.864 57.336C202.475 45.389 177.674 41.126 156.053 42.709C78.845 48.36 46.107 117.439 60.944 193.299C80.736 294.491 170.44 397.858 277.008 398.582C332.744 398.961 385.956 379.037 427.697 350.872C428.009 350.661 428.32 350.45 428.631 350.239C470.331 321.854 520.766 272.837 483.551 209.106Z" fill="#92E3A9"/>
<path id="Vector_2" opacity="0.7" d="M483.551 209.106C434.807 125.632 302.601 155.362 275.596 114.757C261.769 93.967 246.301 69.868 223.864 57.336C202.475 45.389 177.674 41.126 156.053 42.709C78.845 48.36 46.107 117.439 60.944 193.299C80.736 294.491 170.44 397.858 277.008 398.582C332.744 398.961 385.956 379.037 427.697 350.872C428.009 350.661 428.32 350.45 428.631 350.239C470.331 321.854 520.766 272.837 483.551 209.106Z" fill="white"/>
</g>
</g>
<g id="Shadow">
<g id="Group_2">
<path id="Vector_3" d="M277 472.163C382.775 472.163 468.522 460.18 468.522 445.399C468.522 430.618 382.775 418.635 277 418.635C171.225 418.635 85.478 430.618 85.478 445.399C85.478 460.18 171.225 472.163 277 472.163Z" fill="#92E3A9"/>
<path id="Vector_4" opacity="0.5" d="M277 472.163C382.775 472.163 468.522 460.18 468.522 445.399C468.522 430.618 382.775 418.635 277 418.635C171.225 418.635 85.478 430.618 85.478 445.399C85.478 460.18 171.225 472.163 277 472.163Z" fill="white"/>
</g>
</g>
<g id="Window">
<g id="Group_3">
<path id="Vector_5" d="M457.54 133.524V313.584C457.54 325.839 447.601 335.779 435.346 335.779H118.655C106.399 335.779 96.46 325.84 96.46 313.584V133.524C96.46 132.995 96.482 132.476 96.526 131.958C97.32 120.431 106.928 111.319 118.654 111.319H435.345C447.071 111.319 456.679 120.431 457.473 131.958C457.518 132.476 457.54 132.995 457.54 133.524Z" fill="white" stroke="#263238" stroke-width="1.1031" stroke-miterlimit="10" stroke-linecap="round" stroke-linejoin="round"/>
<path id="Vector_6" d="M427.071 327.408H128.06C116.572 327.408 107.26 318.095 107.26 306.608V140.276H447.871V306.607C447.871 318.095 438.559 327.408 427.071 327.408Z" fill="#263238"/>
<path id="Vector_7" opacity="0.2" d="M447.877 140.275V306.612C447.877 318.095 438.662 327.405 427.308 327.405H127.829C116.476 327.405 107.26 318.095 107.26 306.612V140.275H447.877Z" fill="white"/>
<path id="Vector_8" d="M457.474 131.958H96.526C97.32 120.431 106.928 111.319 118.654 111.319H435.345C447.071 111.319 456.679 120.43 457.474 131.958Z" fill="#92E3A9" stroke="#263238" stroke-width="1.1031" stroke-miterlimit="10"/>
<path id="Vector_9" d="M140.881 121.638C140.881 123.809 139.121 125.569 136.95 125.569C134.779 125.569 133.019 123.809 133.019 121.638C133.019 119.467 134.779 117.707 136.95 117.707C139.121 117.707 140.881 119.467 140.881 121.638Z" fill="#263238"/>
<path id="Vector_10" d="M157.504 121.638C157.504 123.809 155.744 125.569 153.573 125.569C151.402 125.569 149.642 123.809 149.642 121.638C149.642 119.467 151.402 117.707 153.573 117.707C155.743 117.707 157.504 119.467 157.504 121.638Z" fill="#263238"/>
<path id="Vector_11" d="M170.195 125.569C172.366 125.569 174.126 123.809 174.126 121.638C174.126 119.467 172.366 117.707 170.195 117.707C168.024 117.707 166.264 119.467 166.264 121.638C166.264 123.809 168.024 125.569 170.195 125.569Z" fill="#263238"/>
<path id="Vector_12" d="M447.871 140.282V306.608C447.871 318.091 438.561 327.413 427.066 327.413H128.059C117.955 327.413 109.538 320.199 107.663 310.646L107.652 310.635V310.591C107.398 309.3 107.266 307.966 107.266 306.609V140.282H447.871Z" stroke="#263238" stroke-width="1.1031" stroke-miterlimit="10"/>
<path id="Vector_13" d="M447.548 166.008C446.092 165.192 444.537 164.552 442.926 164.1L441.062 155.75H433.12L431.267 164.1C429.645 164.541 428.09 165.192 426.634 166.008L419.464 161.419L413.849 167.034L418.361 174.204C417.534 175.671 416.894 177.226 416.453 178.837L408.103 180.69V188.632L416.453 190.496C416.894 192.129 417.534 193.695 418.361 195.162L413.772 202.376L419.387 207.991L426.601 203.402C428.057 204.229 429.612 204.869 431.234 205.321L433.087 213.661H441.029L442.893 205.321C444.504 204.869 446.059 204.218 447.515 203.402L447.879 203.634V165.797L447.548 166.008ZM437.113 194.965C431.443 194.965 426.854 190.376 426.854 184.706C426.854 179.047 431.443 174.447 437.113 174.447C442.783 174.447 447.372 179.047 447.372 184.706C447.372 190.376 442.783 194.965 437.113 194.965Z" fill="#263238"/>
<path id="Vector_14" d="M304.451 174.052V157.307L286.845 153.402C285.885 150.004 284.54 146.717 282.819 143.628L284.948 140.275H201.851L203.903 143.54C202.171 146.618 200.825 149.894 199.888 153.302L182.282 157.218V173.963L199.888 177.89C200.826 181.321 202.171 184.63 203.903 187.73L194.229 202.942L206.076 214.778L221.277 205.104C224.366 206.836 227.642 208.193 231.05 209.152L234.955 226.735H251.7L255.638 209.152C259.035 208.192 262.301 206.824 265.378 205.104L280.59 214.778L292.426 202.942L282.818 187.73C284.528 184.641 285.885 181.376 286.844 177.979L304.451 174.052ZM243.449 187.312C231.502 187.312 221.817 177.627 221.817 165.68C221.817 153.733 231.502 144.048 243.449 144.048C255.396 144.048 265.081 153.733 265.081 165.68C265.081 177.627 255.396 187.312 243.449 187.312Z" fill="#263238"/>
<path id="Vector_15" d="M193.385 289.036L194.091 275.755L180.324 271.872C179.684 269.147 178.735 266.489 177.5 263.974L185.817 252.292L176.904 242.397L164.439 249.446C162.056 247.957 159.519 246.732 156.85 245.817L154.467 231.697L141.186 230.991L137.347 244.802C134.611 245.409 131.964 246.357 129.449 247.604L117.778 239.287L107.872 248.2L114.932 260.676C113.41 263.048 112.196 265.585 111.292 268.254L107.266 268.916V286.908L110.189 287.735C110.807 290.482 111.755 293.14 113.013 295.655L107.266 303.697L107.652 310.591V310.635L107.663 310.646L113.587 317.221L126.074 310.172C128.457 311.705 131.016 312.941 133.685 313.845L135.957 327.402V327.413L136.067 327.976L149.348 328.682L149.701 327.413V327.402L153.187 314.871C155.945 314.253 158.592 313.316 161.129 312.069L172.778 320.375L182.684 311.473L175.646 298.986C177.146 296.614 178.36 294.077 179.242 291.419L193.385 289.036ZM158.107 268.286C151.753 261.226 140.877 260.653 133.817 267.006C126.757 273.36 126.184 284.236 132.537 291.296C138.891 298.356 149.767 298.918 156.827 292.564C163.887 286.212 164.461 275.346 158.107 268.286Z" fill="#263238"/>
<path id="Vector_16" d="M299.601 269.189C300.117 267.133 300.384 265.02 300.407 262.899L309.956 257.879L307.317 248.191L296.539 248.695C295.449 246.878 294.144 245.193 292.667 243.691L295.861 233.38L287.158 228.394L279.877 236.339C277.828 235.837 275.725 235.574 273.607 235.54L268.566 225.984L258.892 228.616L259.403 239.408C257.586 240.498 255.901 241.802 254.389 243.276L244.075 240.092L239.083 248.781L247.071 256.043C246.555 258.099 246.292 260.202 246.283 262.316L236.717 267.353L239.356 277.041L250.148 276.53C251.224 278.354 252.518 280.034 254.006 281.54L250.797 291.798L259.501 296.784L266.745 288.907C268.801 289.423 270.903 289.687 273.029 289.699L278.056 299.262L287.73 296.63L287.306 287.412L287.234 285.832C289.072 284.749 290.767 283.449 292.297 281.958L302.604 285.162L306.863 277.718L307.59 276.458L299.601 269.189ZM276.728 275.074C269.816 276.955 262.695 272.875 260.82 265.977C258.939 259.065 263.019 251.944 269.917 250.069C276.829 248.188 283.95 252.268 285.825 259.166C287.706 266.078 283.626 273.2 276.728 275.074Z" fill="#263238"/>
<path id="Vector_17" d="M410.316 286.227L412.522 272.935L399.064 267.519C398.755 264.684 398.104 261.904 397.134 259.224L406.819 248.436L398.976 237.471L385.617 243.141C383.4 241.365 380.984 239.865 378.403 238.662L377.62 224.167L364.317 221.972L358.868 235.375C356.044 235.706 353.275 236.357 350.606 237.317L339.784 227.632L328.83 235.475L334.511 248.823C332.945 250.786 331.588 252.882 330.463 255.111C330.309 255.42 330.154 255.729 330.011 256.038L315.527 256.843L313.321 270.124L315.505 271.007L326.779 275.552C327.088 278.365 327.728 281.145 328.709 283.814L319.024 294.636L326.867 305.59L340.226 299.898C342.432 301.696 344.859 303.207 347.429 304.41L348.179 318.839L361.471 321.034L366.909 307.731C369.744 307.422 372.524 306.771 375.193 305.79L385.992 315.486L396.957 307.632L391.276 294.273C393.085 292.056 394.618 289.618 395.832 287.026L410.316 286.227ZM373.02 285.632C365.199 291.225 354.322 289.427 348.73 281.606C343.126 273.796 344.935 262.919 352.745 257.327C360.566 251.723 371.443 253.532 377.035 261.342C382.639 269.162 380.83 280.039 373.02 285.632Z" fill="#263238"/>
</g>
</g>
<g id="Graphics">
<g id="Group_4">
<g id="Group_5">
<path id="Vector_18" d="M230.076 358.784H125.499C118.259 358.784 112.389 352.914 112.389 345.674V200.88C112.389 193.64 118.258 187.77 125.499 187.77H230.076C237.316 187.77 243.186 193.64 243.186 200.88V345.674C243.186 352.915 237.316 358.784 230.076 358.784Z" fill="#92E3A9" stroke="#263238" stroke-width="1.1031" stroke-miterlimit="10"/>
<path id="Vector_19" opacity="0.2" d="M230.076 358.784H125.499C118.259 358.784 112.389 352.914 112.389 345.674V200.88C112.389 193.64 118.258 187.77 125.499 187.77H230.076C237.316 187.77 243.186 193.64 243.186 200.88V345.674C243.186 352.915 237.316 358.784 230.076 358.784Z" fill="black"/>
<g id="Group_6">
<path id="Vector_20" d="M255.362 213.797V358.59C255.362 365.837 249.494 371.706 242.246 371.706H137.671C130.435 371.706 124.566 365.838 124.566 358.59V213.797C124.566 206.561 130.434 200.692 137.671 200.692H242.246C249.493 200.692 255.362 206.56 255.362 213.797Z" fill="white" stroke="#263238" stroke-width="1.1031" stroke-miterlimit="10" stroke-linecap="round" stroke-linejoin="round"/>
<path id="Vector_21" d="M255.362 213.797V221.552H124.566V213.797C124.566 206.561 130.434 200.692 137.671 200.692H242.246C249.493 200.692 255.362 206.56 255.362 213.797Z" fill="#92E3A9" stroke="#263238" stroke-width="1.1031" stroke-miterlimit="10"/>
<path id="Vector_22" d="M169.045 230.534H136.867V235.931H169.045V230.534Z" fill="#92E3A9"/>
<path id="Vector_23" d="M169.045 278.922H136.867V284.319H169.045V278.922Z" fill="#92E3A9"/>
<path id="Vector_24" d="M169.045 322.802H136.867V328.199H169.045V322.802Z" fill="#92E3A9"/>
<g id="Group_7">
<path id="Vector_25" d="M228.259 243.896H136.867V247.855H228.259V243.896Z" fill="#263238"/>
<path id="Vector_26" d="M211.779 251.473H136.867V255.331H211.779V251.473Z" fill="#263238"/>
<path id="Vector_27" d="M221.589 258.922H136.867V262.78H221.589V258.922Z" fill="#263238"/>
<path id="Vector_28" d="M221.589 266.363H136.867V270.221H221.589V266.363Z" fill="#263238"/>
</g>
<g id="Group_8">
<path id="Vector_29" d="M228.259 287.776H136.867V291.735H228.259V287.776Z" fill="#263238"/>
<path id="Vector_30" d="M211.779 295.353H136.867V299.211H211.779V295.353Z" fill="#263238"/>
<path id="Vector_31" d="M221.589 302.801H136.867V306.659H221.589V302.801Z" fill="#263238"/>
</g>
<g id="Group_9">
<path id="Vector_32" d="M228.259 335.962H136.867V339.921H228.259V335.962Z" fill="#263238"/>
<path id="Vector_33" d="M211.779 343.539H136.867V347.397H211.779V343.539Z" fill="#263238"/>
<path id="Vector_34" d="M221.589 350.988H136.867V354.846H221.589V350.988Z" fill="#263238"/>
</g>
</g>
</g>
<g id="Group_10">
<path id="Vector_35" d="M402.765 100.294V158.814C402.765 167.451 395.771 174.445 387.134 174.445H252.346C243.72 174.445 236.715 167.451 236.715 158.814V100.294C236.715 91.657 243.72 84.652 252.346 84.652H387.134C395.771 84.652 402.765 91.657 402.765 100.294Z" fill="white" stroke="#222221" stroke-width="1.1031" stroke-miterlimit="10"/>
<path id="Vector_36" d="M402.765 100.294V101.629H236.715V100.294C236.715 91.657 243.72 84.652 252.346 84.652H387.134C395.771 84.652 402.765 91.657 402.765 100.294Z" fill="#92E3A9" stroke="#263238" stroke-width="1.1031" stroke-miterlimit="10"/>
<path id="Vector_37" d="M261.109 95.937C260.174 96.872 258.658 96.872 257.723 95.937C256.788 95.002 256.788 93.486 257.723 92.551C258.658 91.616 260.174 91.616 261.109 92.551C262.044 93.486 262.044 95.002 261.109 95.937Z" fill="#263238"/>
<path id="Vector_38" d="M272.229 95.937C271.294 96.872 269.778 96.872 268.843 95.937C267.908 95.002 267.908 93.486 268.843 92.551C269.778 91.616 271.294 91.616 272.229 92.551C273.164 93.486 273.164 95.002 272.229 95.937Z" fill="#263238"/>
<path id="Vector_39" d="M283.349 95.937C282.414 96.872 280.898 96.872 279.963 95.937C279.028 95.002 279.028 93.486 279.963 92.551C280.898 91.616 282.414 91.616 283.349 92.551C284.284 93.486 284.284 95.002 283.349 95.937Z" fill="#263238"/>
<path id="Vector_40" d="M301.581 112.39H247.303V159.308H301.581V112.39Z" stroke="#263238" stroke-width="1.1031" stroke-miterlimit="10" stroke-linecap="round" stroke-linejoin="round" stroke-dasharray="4.41 4.41"/>
<g id="Group_11">
<path id="Vector_41" d="M372.423 112.39H309.956V115.685H372.423V112.39Z" fill="#263238"/>
<path id="Vector_42" d="M357.872 119.223H309.956V122.518H357.872V119.223Z" fill="#263238"/>
<path id="Vector_43" d="M381.309 126.017H309.956V129.351H381.309V126.017Z" fill="#263238"/>
<path id="Vector_44" d="M370.714 132.655H309.956V135.989H370.714V132.655Z" fill="#263238"/>
</g>
<path id="MERN Stack" d="M256.057 126.273H257.318L260.284 133.517H260.386L263.352 126.273H264.614V135H263.625V128.369H263.54L260.812 135H259.858L257.131 128.369H257.045V135H256.057V126.273ZM266.733 135V126.273H272V127.21H267.789V130.159H271.727V131.097H267.789V134.062H272.068V135H266.733ZM273.904 135V126.273H276.853C277.535 126.273 278.095 126.389 278.532 126.622C278.97 126.852 279.294 127.169 279.504 127.572C279.714 127.976 279.819 128.435 279.819 128.949C279.819 129.463 279.714 129.919 279.504 130.317C279.294 130.714 278.971 131.027 278.537 131.254C278.102 131.479 277.547 131.591 276.87 131.591H274.484V130.636H276.836C277.302 130.636 277.677 130.568 277.961 130.432C278.248 130.295 278.456 130.102 278.583 129.852C278.714 129.599 278.779 129.298 278.779 128.949C278.779 128.599 278.714 128.294 278.583 128.033C278.453 127.771 278.244 127.57 277.957 127.428C277.67 127.283 277.291 127.21 276.819 127.21H274.961V135H273.904ZM278.012 131.08L280.16 135H278.933L276.819 131.08H278.012ZM288.501 126.273V135H287.478L282.722 128.148H282.637V135H281.58V126.273H282.603L287.376 133.142H287.461V126.273H288.501ZM260.83 143.455C260.778 143.023 260.571 142.688 260.207 142.449C259.844 142.21 259.398 142.091 258.869 142.091C258.483 142.091 258.145 142.153 257.855 142.278C257.568 142.403 257.344 142.575 257.182 142.794C257.023 143.013 256.943 143.261 256.943 143.54C256.943 143.773 256.999 143.973 257.109 144.141C257.223 144.305 257.368 144.443 257.544 144.554C257.72 144.662 257.905 144.751 258.098 144.822C258.291 144.891 258.469 144.946 258.631 144.989L259.517 145.227C259.744 145.287 259.997 145.369 260.276 145.474C260.557 145.58 260.825 145.723 261.081 145.905C261.339 146.084 261.553 146.314 261.72 146.595C261.888 146.876 261.972 147.222 261.972 147.631C261.972 148.102 261.848 148.528 261.601 148.909C261.357 149.29 260.999 149.592 260.527 149.817C260.058 150.041 259.489 150.153 258.818 150.153C258.193 150.153 257.652 150.053 257.195 149.851C256.74 149.649 256.382 149.368 256.121 149.007C255.862 148.646 255.716 148.227 255.682 147.75H256.773C256.801 148.08 256.912 148.352 257.105 148.568C257.301 148.781 257.548 148.94 257.847 149.045C258.148 149.148 258.472 149.199 258.818 149.199C259.222 149.199 259.584 149.134 259.905 149.003C260.226 148.869 260.48 148.685 260.668 148.449C260.855 148.21 260.949 147.932 260.949 147.614C260.949 147.324 260.868 147.088 260.706 146.906C260.544 146.724 260.331 146.577 260.067 146.463C259.803 146.349 259.517 146.25 259.21 146.165L258.136 145.858C257.455 145.662 256.915 145.382 256.517 145.018C256.119 144.655 255.92 144.179 255.92 143.591C255.92 143.102 256.053 142.676 256.317 142.312C256.584 141.946 256.942 141.662 257.391 141.46C257.842 141.256 258.347 141.153 258.903 141.153C259.466 141.153 259.966 141.254 260.403 141.456C260.841 141.655 261.188 141.928 261.443 142.274C261.702 142.621 261.838 143.014 261.852 143.455H260.83ZM266.419 143.455V144.307H263.027V143.455H266.419ZM264.016 141.886H265.022V148.125C265.022 148.409 265.063 148.622 265.145 148.764C265.23 148.903 265.338 148.997 265.469 149.045C265.603 149.091 265.743 149.114 265.891 149.114C266.002 149.114 266.093 149.108 266.164 149.097C266.235 149.082 266.292 149.071 266.334 149.062L266.539 149.966C266.471 149.991 266.375 150.017 266.253 150.043C266.131 150.071 265.976 150.085 265.789 150.085C265.505 150.085 265.226 150.024 264.953 149.902C264.684 149.78 264.459 149.594 264.28 149.344C264.104 149.094 264.016 148.778 264.016 148.398V141.886ZM269.858 150.153C269.444 150.153 269.067 150.075 268.729 149.919C268.391 149.76 268.123 149.531 267.924 149.233C267.725 148.932 267.625 148.568 267.625 148.142C267.625 147.767 267.699 147.463 267.847 147.23C267.995 146.994 268.192 146.81 268.439 146.676C268.686 146.543 268.959 146.443 269.257 146.378C269.559 146.31 269.861 146.256 270.165 146.216C270.563 146.165 270.885 146.126 271.132 146.101C271.382 146.072 271.564 146.026 271.678 145.96C271.794 145.895 271.853 145.781 271.853 145.619V145.585C271.853 145.165 271.738 144.838 271.507 144.605C271.28 144.372 270.935 144.256 270.472 144.256C269.992 144.256 269.615 144.361 269.343 144.571C269.07 144.781 268.878 145.006 268.767 145.244L267.813 144.903C267.983 144.506 268.211 144.196 268.495 143.974C268.782 143.75 269.094 143.594 269.432 143.506C269.773 143.415 270.108 143.369 270.438 143.369C270.648 143.369 270.89 143.395 271.162 143.446C271.438 143.494 271.703 143.595 271.959 143.749C272.218 143.902 272.432 144.134 272.603 144.443C272.773 144.753 272.858 145.168 272.858 145.688V150H271.853V149.114H271.801C271.733 149.256 271.62 149.408 271.461 149.57C271.301 149.732 271.09 149.869 270.826 149.983C270.561 150.097 270.239 150.153 269.858 150.153ZM270.012 149.25C270.409 149.25 270.745 149.172 271.017 149.016C271.293 148.859 271.5 148.658 271.64 148.411C271.782 148.163 271.853 147.903 271.853 147.631V146.71C271.81 146.761 271.716 146.808 271.571 146.851C271.429 146.891 271.265 146.926 271.077 146.957C270.892 146.986 270.712 147.011 270.536 147.034C270.363 147.054 270.222 147.071 270.114 147.085C269.853 147.119 269.608 147.175 269.381 147.251C269.157 147.325 268.975 147.437 268.836 147.588C268.699 147.736 268.631 147.937 268.631 148.193C268.631 148.543 268.76 148.807 269.019 148.986C269.28 149.162 269.611 149.25 270.012 149.25ZM277.353 150.136C276.739 150.136 276.211 149.991 275.768 149.702C275.325 149.412 274.984 149.013 274.745 148.504C274.506 147.996 274.387 147.415 274.387 146.761C274.387 146.097 274.509 145.51 274.754 145.001C275.001 144.49 275.344 144.091 275.785 143.804C276.228 143.514 276.745 143.369 277.336 143.369C277.796 143.369 278.211 143.455 278.58 143.625C278.95 143.795 279.252 144.034 279.488 144.341C279.724 144.648 279.87 145.006 279.927 145.415H278.921C278.844 145.116 278.674 144.852 278.41 144.622C278.148 144.389 277.796 144.273 277.353 144.273C276.961 144.273 276.617 144.375 276.322 144.58C276.029 144.781 275.8 145.067 275.636 145.436C275.474 145.803 275.393 146.233 275.393 146.727C275.393 147.233 275.472 147.673 275.631 148.048C275.793 148.423 276.021 148.714 276.313 148.922C276.609 149.129 276.955 149.233 277.353 149.233C277.614 149.233 277.852 149.188 278.065 149.097C278.278 149.006 278.458 148.875 278.606 148.705C278.754 148.534 278.859 148.33 278.921 148.091H279.927C279.87 148.477 279.729 148.825 279.505 149.135C279.283 149.442 278.989 149.686 278.623 149.868C278.259 150.047 277.836 150.136 277.353 150.136ZM282.335 147.614L282.317 146.369H282.522L285.386 143.455H286.63L283.579 146.54H283.494L282.335 147.614ZM281.397 150V141.273H282.403V150H281.397ZM285.556 150L282.999 146.761L283.715 146.062L286.835 150H285.556Z" fill="black"/>
</g>
</g>
</g>
<g id="Character">
<g id="Group_12">
<path id="Vector_45" d="M323.863 440.465C323.863 440.465 294.862 448.782 290.814 450.216C287.13 451.518 277.147 455.014 269.656 453.933C268.917 453.823 268.2 453.668 267.516 453.47C259.927 451.209 256.518 449.102 255.525 444.325C254.521 439.538 258.305 436.041 261.945 433.79C265.585 431.54 285.331 429.19 285.331 429.19L290.096 430.591H290.107L323.863 440.465Z" fill="#92E3A9"/>
<path id="Vector_46" d="M269.657 453.934C268.918 453.824 268.201 453.669 267.517 453.471C259.928 451.21 256.519 449.103 255.526 444.326C254.522 439.539 258.306 436.042 261.946 433.791C265.586 431.541 285.332 429.191 285.332 429.191L290.097 430.592C285.784 432.578 269.701 433.681 266.193 435.699C262.685 437.718 260.986 441.523 263.06 446.664C264.163 449.401 267.119 452.048 269.657 453.934Z" fill="white"/>
<path id="Vector_47" d="M319.5 441.648C319.5 441.648 297.72 447.291 289.084 450.903C280.448 454.515 263.97 456.095 258.101 448.646C252.232 441.197 257.424 434.789 263.293 433.365C269.162 431.941 281.03 429.684 287.511 430.587" stroke="#263238" stroke-width="1.1031" stroke-miterlimit="10" stroke-linecap="round" stroke-linejoin="round"/>
<path id="Vector_48" d="M270.094 453.538C270.094 453.538 259.012 447.462 262.692 438.945C265.408 432.66 280.191 434.023 287.511 430.587" stroke="#263238" stroke-width="1.1031" stroke-miterlimit="10" stroke-linecap="round" stroke-linejoin="round"/>
<path id="Vector_49" d="M412.189 455.28C411.891 458.247 410.843 461.093 407.843 462.858C405.846 464.038 403 464.744 398.93 464.7C388.759 464.568 369.643 457.298 369.643 457.298L351.74 447.403L361.05 432.666L363.598 428.628L370.183 430.106C370.183 430.106 375.632 433.195 381.115 435.654C386.597 438.114 399.901 438.632 404.589 442.427C409.277 446.212 412.696 450.338 412.189 455.28Z" fill="#92E3A9"/>
<path id="Vector_50" d="M412.189 455.28C411.891 458.247 410.843 461.093 407.843 462.858C408.406 460.552 408.869 457.364 407.336 453.923C405.35 449.433 398.831 445.473 390.271 444.812C381.722 444.15 375.158 440.146 371.728 438.359C369.048 436.969 363.4 433.936 361.05 432.667L363.598 428.629L370.183 430.107C370.183 430.107 375.632 433.196 381.115 435.655C386.597 438.115 399.901 438.633 404.589 442.428C409.277 446.212 412.696 450.338 412.189 455.28Z" fill="white"/>
<path id="Vector_51" d="M355.706 450.178C368.451 457.479 383.028 462.736 397.61 464.493C400.866 464.885 404.656 464.939 406.838 462.492C408.054 461.128 408.498 459.198 408.342 457.377C407.947 452.781 404.083 449.136 399.845 447.315C395.607 445.493 390.927 445.058 386.426 444.049C381.944 443.044 377.594 441.453 373.521 439.328C370.285 437.64 367.153 435.589 363.582 434.833C360.011 434.077 355.758 434.994 353.854 438.108" stroke="#263238" stroke-width="1.1031" stroke-miterlimit="10" stroke-linecap="round" stroke-linejoin="round"/>
<path id="Vector_52" d="M405.643 463.739C408.938 462.048 411.643 458.942 412.192 455.279C412.841 450.947 410.374 446.592 406.897 443.927C403.42 441.262 399.077 440.011 394.788 439.12C390.499 438.228 386.113 437.629 382.033 436.035C375.76 433.584 369.573 428.743 363.063 430.47" stroke="#263238" stroke-width="1.1031" stroke-miterlimit="10" stroke-linecap="round" stroke-linejoin="round"/>
<path id="Vector_53" d="M375.908 295.263L345.617 283.736L345.242 283.592C345.242 283.592 345.352 282.787 345.441 281.618C345.629 279.202 345.728 275.264 344.592 273.929C342.904 271.954 338.117 273.609 333.451 271.469C328.785 269.329 320.148 273.157 320.148 273.157C320.148 273.157 313.915 272.01 311.169 276.511C309.768 280.14 310.253 285.545 310.253 285.545C310.253 285.545 310.055 285.622 309.679 285.755C306.072 287.101 286.437 294.492 282.278 297.459C277.689 300.713 272.615 334.082 270.982 343.878C269.349 353.684 266.448 362.509 267.926 365.885C269.393 369.25 290.496 385.498 302.63 389.69C314.764 393.893 357.818 392.657 357.818 392.657C357.818 392.657 358.524 392.469 359.77 392.072C367.051 389.733 392.885 380.103 406.586 357.39C406.586 357.39 393.315 313.862 375.908 295.263ZM294.068 351.389C291.84 352.967 293.031 359.089 293.031 359.089L289.236 355.747L298.756 332.339L302.815 350.309C302.815 350.309 296.297 349.823 294.068 351.389ZM370.227 366.259C369.179 366.799 373.239 355.548 371.308 353C369.378 350.441 363.597 350.695 363.597 350.695L364.093 347.617C364.159 347.275 367.524 330.023 367.524 330.023L368.66 328.666C368.66 328.666 380.441 348.864 382.548 355.979C382.548 355.979 369.708 366.259 370.227 366.259Z" fill="#92E3A9"/>
<path id="Vector_54" d="M318.715 222.254L303.081 238.853C303.081 238.853 300.925 240.759 301.782 245.574C302.639 250.389 304.634 254.526 306.142 254.846C307.649 255.167 309.762 255.17 309.762 255.17C309.762 255.17 313.112 262.431 315.485 265.284C315.485 265.284 316.312 276.491 315.872 279.602C315.872 279.602 321.488 284.508 326.779 285.132C332.07 285.756 340.244 277.65 340.244 277.65L342.27 267.727C342.27 267.727 347.066 260.447 347.393 258.509C347.72 256.571 349.913 257.068 350.99 256.112C352.067 255.156 354.561 250.88 354.973 246.84C355.385 242.8 355.414 238.159 350.72 239.522C346.654 238.429 349.199 229.832 349.199 229.832L342.053 223.527L318.715 222.254Z" fill="white"/>
<path id="Vector_55" opacity="0.5" d="M345.616 283.736C345.373 284.376 345.109 284.982 344.811 285.545C342.23 290.41 330.989 299.676 330.989 299.676L327.591 289.23L325.727 299.676C321.976 298.043 310.537 288.127 310.537 288.127C310.537 288.127 310.151 287.2 309.677 285.755C310.052 285.623 310.251 285.545 310.251 285.545C310.251 285.545 309.766 280.14 311.167 276.511C313.914 272.01 320.146 273.157 320.146 273.157C320.146 273.157 328.783 269.329 333.449 271.469C338.115 273.609 342.903 271.954 344.59 273.929C346.278 275.903 345.241 283.592 345.241 283.592L345.616 283.736Z" fill="white"/>
<path id="Vector_56" opacity="0.2" d="M375.908 295.263L345.617 283.736L345.242 283.592C345.242 283.592 345.352 282.787 345.441 281.618L344.812 285.545L340.333 291.634C340.333 291.634 347.907 294.367 354.31 297.795C358.762 300.178 361.318 305.025 360.732 310.04L355.148 357.788L352.865 384.902L359.77 392.072C367.051 389.733 392.885 380.103 406.586 357.39C406.586 357.39 393.315 313.862 375.908 295.263ZM370.227 366.259C369.179 366.799 373.239 355.548 371.308 353C369.378 350.441 363.597 350.695 363.597 350.695L364.093 347.617C364.159 347.275 367.524 330.023 367.524 330.023L368.66 328.666C368.66 328.666 380.441 348.864 382.548 355.979C382.548 355.979 369.708 366.259 370.227 366.259Z" fill="black"/>
<path id="Vector_57" opacity="0.2" d="M304.868 353L300.158 337.259C300.158 337.259 291.713 308.455 285.922 301.351L287.444 321.608C287.444 321.608 282.475 345.808 277.875 353C273.275 360.181 272.282 361.979 277.875 361.979C283.479 361.979 297.069 372.823 297.069 372.823L296.021 363.777L304.868 353ZM293.031 359.089L289.236 355.747L298.756 332.339L302.815 350.309C302.815 350.309 296.296 349.824 294.067 351.39C291.84 352.967 293.031 359.089 293.031 359.089Z" fill="black"/>
<path id="Vector_58" d="M315.485 265.284C315.485 265.284 316.355 273.772 315.485 277.65" stroke="#263238" stroke-width="1.1031" stroke-miterlimit="10" stroke-linecap="round" stroke-linejoin="round"/>
<path id="Vector_59" d="M341.108 276.513C341.108 276.513 341.059 272.378 342.053 268.404" stroke="#263238" stroke-width="1.1031" stroke-miterlimit="10" stroke-linecap="round" stroke-linejoin="round"/>
<path id="Vector_60" d="M343.382 228.582C343.382 228.582 348.517 235.034 348.254 239.906C347.991 244.778 347.596 250.572 347.727 256.234C347.859 261.896 338.641 273.747 333.901 274.8C329.161 275.853 325.079 276.117 322.05 273.088C319.022 270.059 315.993 265.846 312.043 260.447C308.093 255.048 309.015 243.197 309.015 243.197" stroke="#263238" stroke-width="1.1031" stroke-miterlimit="10" stroke-linecap="round" stroke-linejoin="round"/>
<path id="Vector_61" d="M331.021 247.714C330.707 249.483 330.573 251.285 330.62 253.081C330.66 254.585 330.883 256.211 331.937 257.285C332.505 257.864 333.329 258.327 333.437 259.13C333.533 259.843 332.988 260.49 332.382 260.878C331.776 261.266 331.073 261.506 330.531 261.978" stroke="#263238" stroke-width="1.1031" stroke-miterlimit="10" stroke-linecap="round" stroke-linejoin="round"/>
<path id="Vector_62" d="M322.866 262.604C322.866 262.604 323.46 266.431 328.592 267.232" stroke="#263238" stroke-width="1.1031" stroke-miterlimit="10" stroke-linecap="round" stroke-linejoin="round"/>
<path id="Vector_63" d="M323.4 250.632C323.4 251.738 322.922 252.635 322.332 252.635C321.742 252.635 321.264 251.738 321.264 250.632C321.264 249.526 321.742 248.629 322.332 248.629C322.922 248.63 323.4 249.526 323.4 250.632Z" fill="#263238"/>
<path id="Vector_64" d="M338.71 251.113C338.71 252.219 338.232 253.116 337.642 253.116C337.052 253.116 336.574 252.219 336.574 251.113C336.574 250.007 337.052 249.11 337.642 249.11C338.231 249.111 338.71 250.007 338.71 251.113Z" fill="#263238"/>
<path id="Vector_65" d="M335.621 246.265C335.621 246.265 340.599 241.287 344.811 246.839" stroke="#263238" stroke-width="2.2062" stroke-miterlimit="10" stroke-linecap="round" stroke-linejoin="round"/>
<path id="Vector_66" d="M325.091 246.361C325.091 246.361 321.932 242.819 316.954 246.361" stroke="#263238" stroke-width="2.2062" stroke-miterlimit="10" stroke-linecap="round" stroke-linejoin="round"/>
<path id="Vector_67" d="M315.871 269.948C315.871 269.948 318.92 278.352 325.729 280.736C332.539 283.119 341.58 270.75 341.58 270.75L341.107 269.141C341.107 269.141 335.183 276.838 328.592 275.526C322.001 274.213 315.484 265.284 315.484 265.284L315.871 269.948Z" fill="#263238"/>
<path id="Vector_68" d="M309.762 254.846C309.762 254.846 305.703 256.279 304.624 253.116C303.545 249.953 299.845 241.628 303.082 238.853C306.32 236.078 308.922 242.517 308.922 242.517" stroke="#263238" stroke-width="1.1031" stroke-miterlimit="10" stroke-linecap="round" stroke-linejoin="round"/>
<path id="Vector_69" d="M347.72 256.57C347.72 256.57 351.493 257.329 352.572 254.166C353.651 251.003 357.351 242.678 354.114 239.902C350.876 237.127 348.274 243.566 348.274 243.566" stroke="#263238" stroke-width="1.1031" stroke-miterlimit="10" stroke-linecap="round" stroke-linejoin="round"/>
<path id="Vector_70" d="M308.921 250.632C310.045 250.581 311.891 249.485 312.483 248.527C313.075 247.57 313.326 246.444 313.518 245.335C313.886 243.211 314.075 241.056 314.082 238.901C314.085 238.059 314.062 237.199 314.308 236.394C314.564 235.555 315.096 234.829 315.665 234.162C317.082 232.502 318.787 231.099 320.134 229.382C321.481 227.665 322.471 225.491 322.107 223.339C322.107 223.339 331.312 231.753 344.581 229.151C351.724 227.75 358.581 221.481 357.746 213.602C357.449 210.798 355.388 208.782 352.713 208.116C349.182 207.238 346.009 209.12 342.81 210.327C336.977 212.527 331.27 208.749 325.377 208.116C320.337 207.574 314.152 208.199 311.527 213.21C311.527 213.21 302.475 214.274 298.509 221.708C294.544 229.143 302.081 239.436 302.081 239.436C302.081 239.436 305.115 235.764 309.013 243.198L308.921 250.632Z" fill="#263238"/>
<path id="Vector_71" d="M343.952 226.681C343.952 226.681 341.611 238.88 347.719 244.786C347.719 244.786 349.056 241.119 350.411 240.224C350.411 240.224 353.811 233.779 349.341 226.68C344.873 219.582 343.952 226.681 343.952 226.681Z" fill="#263238"/>
<path id="Vector_72" opacity="0.2" d="M355.142 212.799C354.238 216.161 351.395 218.762 348.171 220.075C339.691 223.529 331.455 219.698 322.965 218.948C316.026 218.335 308.377 224.586 307.892 231.71" stroke="white" stroke-width="1.1031" stroke-miterlimit="10" stroke-linecap="round" stroke-linejoin="round"/>
<path id="Vector_73" opacity="0.2" d="M302.626 229.831C302.754 224.223 306.459 218.856 311.658 216.749" stroke="white" stroke-width="1.1031" stroke-miterlimit="10" stroke-linecap="round" stroke-linejoin="round"/>
<path id="Vector_74" d="M313.53 276.513C313.53 276.513 319.117 282.669 326.735 285.547C326.735 285.547 336.886 282.603 342.053 275.525" stroke="#263238" stroke-width="1.1031" stroke-miterlimit="10" stroke-linecap="round" stroke-linejoin="round"/>
<path id="Vector_75" d="M315.485 273.162C315.485 273.162 312.754 273.715 311.164 276.512C309.574 279.31 310.533 288.121 310.533 288.121C310.533 288.121 318.74 296.244 325.729 299.67L327.791 288.076L330.991 299.67C330.991 299.67 341.814 292.016 344.811 285.546C344.811 285.546 345.788 278.002 344.811 275.524C343.834 273.046 341.581 273.161 341.581 273.161" stroke="#263238" stroke-width="1.1031" stroke-miterlimit="10" stroke-linecap="round" stroke-linejoin="round"/>
<path id="Vector_76" d="M302.626 350.698C302.626 350.698 299.422 329.203 295.152 320.433" stroke="#263238" stroke-width="1.1031" stroke-miterlimit="10" stroke-linecap="round" stroke-linejoin="round"/>
<path id="Vector_77" d="M285.921 301.351C285.921 301.351 289.976 307.036 292.56 312.462" stroke="#263238" stroke-width="1.1031" stroke-miterlimit="10" stroke-linecap="round" stroke-linejoin="round"/>
<path id="Vector_78" d="M370.228 317.399C371.357 313.116 372.557 309.359 373.756 306.907" stroke="#263238" stroke-width="1.1031" stroke-miterlimit="10" stroke-linecap="round" stroke-linejoin="round"/>
<path id="Vector_79" d="M363.596 350.698C363.596 350.698 365.911 335.962 368.665 323.817" stroke="#263238" stroke-width="1.1031" stroke-miterlimit="10" stroke-linecap="round" stroke-linejoin="round"/>
<path id="Vector_80" d="M367.521 330.018C369.725 327.075 372.921 324.89 376.463 323.903" stroke="#263238" stroke-width="1.1031" stroke-miterlimit="10" stroke-linecap="round" stroke-linejoin="round"/>
<path id="Vector_81" d="M345.245 283.592C345.245 283.592 363.884 291.037 375.913 295.265C375.913 295.265 390.713 309.183 406.581 357.391C406.581 357.391 392.036 381.851 364.38 389.693" stroke="#263238" stroke-width="1.1031" stroke-miterlimit="10" stroke-linecap="round" stroke-linejoin="round"/>
<path id="Vector_82" d="M369.184 367.135L382.547 355.978C382.547 355.978 389.616 350.605 396.968 354.281" stroke="#263238" stroke-width="1.1031" stroke-miterlimit="10" stroke-linecap="round" stroke-linejoin="round"/>
<path id="Vector_83" d="M368.665 328.669C368.665 328.669 379.719 344.95 382.546 355.978" stroke="#263238" stroke-width="1.1031" stroke-miterlimit="10" stroke-linecap="round" stroke-linejoin="round"/>
<path id="Vector_84" d="M293.152 359.707L289.241 355.978C289.241 355.978 283.436 354.963 276.863 359.37" stroke="#263238" stroke-width="1.1031" stroke-miterlimit="10" stroke-linecap="round" stroke-linejoin="round"/>
<path id="Vector_85" d="M289.241 355.978C289.241 355.978 294.098 340.024 298.889 331.787" stroke="#263238" stroke-width="1.1031" stroke-miterlimit="10" stroke-linecap="round" stroke-linejoin="round"/>
<path id="Vector_86" d="M310.247 285.547C310.247 285.547 283.436 295.607 280.807 298.537C278.178 301.467 268.187 357.734 267.924 364.173C267.689 369.929 288.573 382.862 298.889 388.314" stroke="#263238" stroke-width="1.1031" stroke-miterlimit="10" stroke-linecap="round" stroke-linejoin="round"/>
<path id="Vector_87" d="M408 282.324H370.875C366.492 282.324 362.938 279.493 362.938 276V258.648C362.938 255.156 366.491 252.324 370.875 252.324H408C448.938 252.324 448.938 252.324 448.938 258.648V282.324C434.418 282.324 412.383 282.324 408 282.324Z" fill="white" stroke="#263238" stroke-width="1.1031" stroke-miterlimit="10" stroke-linecap="round" stroke-linejoin="round"/>
<path id="Vector_88" d="M376.387 261L368 266.265L375.783 273.167" stroke="#263238" stroke-width="1.1031" stroke-miterlimit="10" stroke-linecap="round" stroke-linejoin="round"/>
<path id="Vector_89" d="M438.163 274.127L445.7 267.704L437 262" stroke="#263238" stroke-width="1.1031" stroke-miterlimit="10" stroke-linecap="round" stroke-linejoin="round"/>
<path id="Vector_90" d="M428 277.413L434.191 258" stroke="#263238" stroke-width="1.1031" stroke-miterlimit="10" stroke-linecap="round" stroke-linejoin="round"/>
<path id="Vector_91" d="M330.296 304.556C330.296 305.53 329.507 306.319 328.533 306.319C327.559 306.319 326.77 305.53 326.77 304.556C326.77 303.582 327.559 302.793 328.533 302.793C329.507 302.793 330.296 303.582 330.296 304.556Z" fill="#263238"/>
<g id="Group_13">
<path id="Vector_92" d="M361.32 398.776H300.302C299.512 398.776 298.872 398.135 298.872 397.346C298.872 396.556 299.513 395.916 300.302 395.916H361.32C362.11 395.916 362.75 396.557 362.75 397.346C362.75 398.135 362.11 398.776 361.32 398.776Z" fill="#263238"/>
<path id="Vector_93" d="M363.456 394.034L371.633 355.635C372.174 353.093 370.236 350.698 367.636 350.698H296.345C293.771 350.698 291.837 353.05 292.336 355.576L299.667 392.697C300.038 394.577 301.666 395.947 303.582 395.99L359.365 397.268C361.329 397.313 363.047 395.955 363.456 394.034Z" fill="white" stroke="#263238" stroke-width="1.1031" stroke-miterlimit="10" stroke-linecap="round" stroke-linejoin="round"/>
<path id="Vector_94" d="M337.439 372.826C337.439 375.969 334.891 378.518 331.747 378.518C328.603 378.518 326.055 375.97 326.055 372.826C326.055 369.683 328.603 367.134 331.747 367.134C334.891 367.134 337.439 369.683 337.439 372.826Z" fill="#263238"/>
<path id="Vector_95" d="M348.625 354.341H357.095" stroke="#263238" stroke-width="1.1031" stroke-miterlimit="10" stroke-linecap="round" stroke-linejoin="round"/>
<path id="Vector_96" d="M308.176 354.341H340.328" stroke="#263238" stroke-width="1.1031" stroke-miterlimit="10" stroke-linecap="round" stroke-linejoin="round"/>
</g>
<path id="Vector_97" d="M363.596 434.771L357.095 451.829C357.095 451.829 340.523 447.652 319.288 443.3C297.084 438.75 273.893 432.859 261.863 411.755C260.396 409.182 259.421 406.142 260.107 403.261C261.843 395.971 271.326 393.993 277.577 393.263C281.5 392.805 285.461 392.653 289.408 392.598C291.42 392.57 298.06 391.515 299.666 392.697C299.666 392.697 303.833 395.763 307.382 397.269C310.932 398.776 362.749 395.915 362.749 395.915C362.749 395.915 364.29 392.662 364.378 389.694C372.523 385.554 391.385 382.047 399.355 383.597C411.888 386.034 419.198 393.344 417.806 401.003C416.414 408.661 388.757 429.201 363.596 434.771Z" fill="#263238"/>
<path id="Vector_98" d="M363.596 434.771C363.596 434.771 347.834 430.594 334.953 421.89C322.072 413.187 312.009 403.091 294.065 405.18" stroke="white" stroke-width="1.1031" stroke-miterlimit="10" stroke-linecap="round" stroke-linejoin="round"/>
<path id="Vector_99" d="M331.99 419.837C340.126 417.496 346.097 412.234 352.626 407.18C359.541 401.826 366.854 396.641 374.719 392.663" stroke="white" stroke-width="1.1031" stroke-miterlimit="10" stroke-linecap="round" stroke-linejoin="round"/>
</g>
</g>
<path id="Hannan" d="M380.933 272V262.545H382.645V266.548H387.026V262.545H388.744V272H387.026V267.984H382.645V272H380.933ZM392.573 272.143C392.124 272.143 391.719 272.063 391.359 271.903C391.002 271.74 390.719 271.5 390.509 271.183C390.303 270.866 390.2 270.475 390.2 270.01C390.2 269.61 390.274 269.279 390.422 269.018C390.569 268.756 390.771 268.547 391.026 268.39C391.282 268.233 391.57 268.114 391.89 268.034C392.213 267.951 392.547 267.891 392.892 267.854C393.307 267.811 393.644 267.773 393.903 267.739C394.161 267.702 394.349 267.647 394.466 267.573C394.586 267.496 394.646 267.377 394.646 267.217V267.19C394.646 266.842 394.543 266.573 394.336 266.382C394.13 266.191 393.833 266.096 393.445 266.096C393.036 266.096 392.711 266.185 392.471 266.363C392.234 266.542 392.074 266.753 391.991 266.996L390.431 266.774C390.554 266.343 390.757 265.983 391.04 265.694C391.323 265.402 391.67 265.183 392.079 265.038C392.488 264.891 392.941 264.817 393.436 264.817C393.778 264.817 394.118 264.857 394.456 264.937C394.795 265.017 395.104 265.149 395.384 265.334C395.664 265.515 395.889 265.763 396.058 266.077C396.231 266.391 396.317 266.783 396.317 267.254V272H394.71V271.026H394.655C394.553 271.223 394.41 271.408 394.226 271.58C394.044 271.749 393.815 271.886 393.538 271.991C393.264 272.092 392.942 272.143 392.573 272.143ZM393.007 270.915C393.342 270.915 393.633 270.849 393.879 270.717C394.126 270.581 394.315 270.403 394.447 270.181C394.583 269.96 394.65 269.718 394.65 269.456V268.621C394.598 268.664 394.509 268.704 394.383 268.741C394.26 268.778 394.121 268.81 393.967 268.838C393.813 268.865 393.661 268.89 393.51 268.912C393.359 268.933 393.229 268.952 393.118 268.967C392.868 269.001 392.645 269.056 392.448 269.133C392.251 269.21 392.096 269.318 391.982 269.456C391.868 269.592 391.811 269.767 391.811 269.983C391.811 270.29 391.924 270.523 392.148 270.68C392.373 270.837 392.659 270.915 393.007 270.915ZM399.669 267.845V272H397.997V264.909H399.595V266.114H399.678C399.841 265.717 400.101 265.402 400.458 265.168C400.818 264.934 401.263 264.817 401.792 264.817C402.281 264.817 402.708 264.921 403.071 265.131C403.437 265.34 403.72 265.643 403.92 266.04C404.123 266.437 404.223 266.919 404.22 267.485V272H402.549V267.744C402.549 267.27 402.426 266.899 402.18 266.631C401.937 266.363 401.6 266.229 401.169 266.229C400.876 266.229 400.616 266.294 400.389 266.423C400.164 266.549 399.987 266.733 399.858 266.973C399.732 267.213 399.669 267.504 399.669 267.845ZM407.59 267.845V272H405.919V264.909H407.517V266.114H407.6C407.763 265.717 408.023 265.402 408.38 265.168C408.74 264.934 409.185 264.817 409.714 264.817C410.203 264.817 410.63 264.921 410.993 265.131C411.359 265.34 411.642 265.643 411.842 266.04C412.045 266.437 412.145 266.919 412.142 267.485V272H410.471V267.744C410.471 267.27 410.348 266.899 410.102 266.631C409.859 266.363 409.522 266.229 409.091 266.229C408.798 266.229 408.538 266.294 408.311 266.423C408.086 266.549 407.909 266.733 407.78 266.973C407.653 267.213 407.59 267.504 407.59 267.845ZM415.882 272.143C415.432 272.143 415.028 272.063 414.667 271.903C414.31 271.74 414.027 271.5 413.818 271.183C413.612 270.866 413.509 270.475 413.509 270.01C413.509 269.61 413.583 269.279 413.73 269.018C413.878 268.756 414.08 268.547 414.335 268.39C414.59 268.233 414.878 268.114 415.198 268.034C415.521 267.951 415.855 267.891 416.2 267.854C416.616 267.811 416.953 267.773 417.211 267.739C417.47 267.702 417.657 267.647 417.774 267.573C417.894 267.496 417.954 267.377 417.954 267.217V267.19C417.954 266.842 417.851 266.573 417.645 266.382C417.439 266.191 417.142 266.096 416.754 266.096C416.345 266.096 416.02 266.185 415.78 266.363C415.543 266.542 415.383 266.753 415.3 266.996L413.74 266.774C413.863 266.343 414.066 265.983 414.349 265.694C414.632 265.402 414.978 265.183 415.388 265.038C415.797 264.891 416.249 264.817 416.745 264.817C417.086 264.817 417.427 264.857 417.765 264.937C418.104 265.017 418.413 265.149 418.693 265.334C418.973 265.515 419.198 265.763 419.367 266.077C419.539 266.391 419.626 266.783 419.626 267.254V272H418.019V271.026H417.964C417.862 271.223 417.719 271.408 417.534 271.58C417.353 271.749 417.123 271.886 416.846 271.991C416.573 272.092 416.251 272.143 415.882 272.143ZM416.316 270.915C416.651 270.915 416.942 270.849 417.188 270.717C417.434 270.581 417.624 270.403 417.756 270.181C417.891 269.96 417.959 269.718 417.959 269.456V268.621C417.907 268.664 417.817 268.704 417.691 268.741C417.568 268.778 417.43 268.81 417.276 268.838C417.122 268.865 416.97 268.89 416.819 268.912C416.668 268.933 416.537 268.952 416.426 268.967C416.177 269.001 415.954 269.056 415.757 269.133C415.56 269.21 415.405 269.318 415.291 269.456C415.177 269.592 415.12 269.767 415.12 269.983C415.12 270.29 415.232 270.523 415.457 270.68C415.682 270.837 415.968 270.915 416.316 270.915ZM422.977 267.845V272H421.306V264.909H422.903V266.114H422.986C423.149 265.717 423.41 265.402 423.767 265.168C424.127 264.934 424.571 264.817 425.101 264.817C425.59 264.817 426.016 264.921 426.379 265.131C426.746 265.34 427.029 265.643 427.229 266.04C427.432 266.437 427.532 266.919 427.529 267.485V272H425.858V267.744C425.858 267.27 425.735 266.899 425.488 266.631C425.245 266.363 424.908 266.229 424.477 266.229C424.185 266.229 423.925 266.294 423.697 266.423C423.473 266.549 423.296 266.733 423.166 266.973C423.04 267.213 422.977 267.504 422.977 267.845Z" fill="#167D52"/>
</g>
</svg>
